<svg width="84" height="34" viewBox="0 0 84 34" fill="none" xmlns="http://www.w3.org/2000/svg">
<path d="M9.70703 1.4375C10.6185 1.48958 11.3672 1.84115 11.9531 2.49219C12.5391 3.13021 12.9622 3.85938 13.2227 4.67969C13.4831 5.5 13.6133 6.33984 13.6133 7.19922C13.6133 8.05859 13.4831 8.89844 13.2227 9.71875C12.9753 10.5391 12.5521 11.2747 11.9531 11.9258C11.3672 12.5638 10.6185 12.9089 9.70703 12.9609H2.51953C2.16797 12.9479 1.86849 12.8242 1.62109 12.5898C1.38672 12.3424 1.26302 12.043 1.25 11.6914V6.84766C1.26302 6.48307 1.39974 6.18359 1.66016 5.94922C1.92057 5.70182 2.23307 5.57812 2.59766 5.57812C2.94922 5.59115 3.2487 5.72135 3.49609 5.96875C3.74349 6.20312 3.8737 6.49609 3.88672 6.84766V9.81641C3.88672 10.168 4.06901 10.3438 4.43359 10.3438H9.04297C9.53776 10.3177 9.94792 10.1289 10.2734 9.77734C10.599 9.42578 10.8333 9.02865 10.9766 8.58594C11.1328 8.13021 11.2109 7.66797 11.2109 7.19922C11.2109 6.73047 11.1328 6.27474 10.9766 5.83203C10.8333 5.3763 10.599 4.97266 10.2734 4.62109C9.94792 4.26953 9.53776 4.08073 9.04297 4.05469H2.51953C1.73828 3.98958 1.3151 3.56641 1.25 2.78516C1.25 2.42057 1.36719 2.10807 1.60156 1.84766C1.84896 1.58724 2.15495 1.45052 2.51953 1.4375H9.70703ZM13.8672 22.7461C13.8672 23.1107 13.737 23.4167 13.4766 23.6641C13.2292 23.9245 12.9232 24.0547 12.5586 24.0547H4.74609C4.4987 24.0677 4.29036 24.1263 4.12109 24.2305C3.96484 24.3216 3.84766 24.4323 3.76953 24.5625C3.69141 24.6797 3.65234 24.8034 3.65234 24.9336C3.65234 25.0638 3.69141 25.194 3.76953 25.3242C3.84766 25.4414 3.96484 25.5521 4.12109 25.6562C4.29036 25.7474 4.4987 25.7995 4.74609 25.8125H10.293C11.2044 25.8385 11.9531 26.0534 12.5391 26.457C13.138 26.8477 13.5612 27.3034 13.8086 27.8242C14.069 28.332 14.1992 28.8529 14.1992 29.3867C14.1992 29.9076 14.069 30.4284 13.8086 30.9492C13.5482 31.457 13.125 31.9128 12.5391 32.3164C11.9531 32.707 11.2044 32.9023 10.293 32.9023H10.1758C10.0977 32.9154 10.0195 32.9219 9.94141 32.9219H2.55859C2.19401 32.9219 1.88151 32.7982 1.62109 32.5508C1.3737 32.2904 1.25 31.9779 1.25 31.6133C1.25 31.2487 1.38021 30.9427 1.64062 30.6953C1.88802 30.4349 2.19401 30.3047 2.55859 30.3047H10.4102C10.6576 30.3177 10.8594 30.2721 11.0156 30.168C11.1849 30.0638 11.3086 29.9466 11.3867 29.8164C11.4648 29.6732 11.5039 29.5299 11.5039 29.3867C11.5039 29.2956 11.4648 29.1719 11.3867 29.0156C11.3086 28.8464 11.1849 28.7096 11.0156 28.6055C10.8594 28.5013 10.6576 28.4427 10.4102 28.4297H4.86328C3.95182 28.4036 3.19661 28.1953 2.59766 27.8047C2.01172 27.4141 1.58854 26.9714 1.32812 26.4766C1.08073 25.9688 0.957031 25.4544 0.957031 24.9336C0.957031 24.4258 1.08724 23.9245 1.34766 23.4297C1.60807 22.9219 2.03125 22.4727 2.61719 22.082C3.20312 21.6914 3.95182 21.4831 4.86328 21.457H4.98047C5.05859 21.444 5.13672 21.4375 5.21484 21.4375H12.5586C12.9232 21.4375 13.2292 21.5677 13.4766 21.8281C13.737 22.0755 13.8672 22.3815 13.8672 22.7461Z" fill="#F8CE03"/>
<path d="M16.1523 6.55469C16.3997 5.92969 16.8164 5.36979 17.4023 4.875C18.0013 4.36719 18.7565 4.10677 19.668 4.09375H27.0117C27.3763 4.09375 27.6823 4.22396 27.9297 4.48438C28.1901 4.73177 28.3203 5.03776 28.3203 5.40234C28.3203 5.76693 28.1901 6.07943 27.9297 6.33984C27.6823 6.58724 27.3763 6.71094 27.0117 6.71094H19.5898C19.3424 6.71094 19.1276 6.8151 18.9453 7.02344C18.763 7.21875 18.6198 7.45312 18.5156 7.72656C18.4245 8 18.3789 8.26042 18.3789 8.50781V11.9258C18.3008 12.707 17.8711 13.1302 17.0898 13.1953C16.7253 13.1953 16.4062 13.0781 16.1328 12.8438C15.8724 12.5964 15.7422 12.2904 15.7422 11.9258V8.52734H15.7617C15.7617 7.85026 15.8919 7.19271 16.1523 6.55469ZM31.6016 3.89844C31.9531 3.91146 32.2526 4.04167 32.5 4.28906C32.7474 4.52344 32.8776 4.81641 32.8906 5.16797V11.9258C32.8125 12.707 32.3828 13.1302 31.6016 13.1953C31.237 13.1953 30.918 13.0781 30.6445 12.8438C30.3841 12.5964 30.2539 12.2904 30.2539 11.9258V5.16797C30.2669 4.80339 30.4036 4.50391 30.6641 4.26953C30.9245 4.02214 31.237 3.89844 31.6016 3.89844ZM29.9609 1.35938C29.9609 0.994792 30.1172 0.682292 30.4297 0.421875C30.7422 0.161458 31.1198 0.03125 31.5625 0.03125C32.0052 0.03125 32.3828 0.161458 32.6953 0.421875C33.0078 0.682292 33.1641 0.994792 33.1641 1.35938C33.1641 1.73698 33.0078 2.05599 32.6953 2.31641C32.3828 2.57682 32.0052 2.70703 31.5625 2.70703C31.1198 2.70703 30.7422 2.57682 30.4297 2.31641C30.1172 2.05599 29.9609 1.73698 29.9609 1.35938ZM38.3594 11.9258C37.6953 11.0273 37.0312 9.84896 36.3672 8.39062L35.0977 5.65625C35.0326 5.51302 34.9935 5.35677 34.9805 5.1875C34.9544 4.82292 35.0651 4.51042 35.3125 4.25C35.5599 3.98958 35.8854 3.85938 36.2891 3.85938C36.7318 3.85938 37.0573 3.95052 37.2656 4.13281C37.487 4.30208 37.6628 4.52344 37.793 4.79688L38.7109 7.0625C38.9453 7.59635 39.1732 8.10417 39.3945 8.58594C39.6289 9.05469 39.8893 9.48438 40.1758 9.875C40.4753 10.2656 40.8073 10.474 41.1719 10.5C41.5234 10.474 41.8555 10.2656 42.168 9.875C42.4414 9.48438 42.6888 9.05469 42.9102 8.58594C43.1445 8.10417 43.3789 7.59635 43.6133 7.0625L44.5312 4.79688C44.6615 4.52344 44.8307 4.30208 45.0391 4.13281C45.2604 3.95052 45.5924 3.85938 46.0352 3.85938C46.4388 3.85938 46.7643 3.98958 47.0117 4.25C47.2591 4.51042 47.3698 4.82292 47.3438 5.1875C47.3307 5.35677 47.2917 5.51302 47.2266 5.65625L45.957 8.39062C45.293 9.84896 44.6289 11.0273 43.9648 11.9258C43.3268 12.8112 42.3958 13.2604 41.1719 13.2734C39.9349 13.2604 38.9974 12.8112 38.3594 11.9258ZM50.8594 3.89844C51.2109 3.91146 51.5104 4.04167 51.7578 4.28906C52.0052 4.52344 52.1354 4.81641 52.1484 5.16797V11.9258C52.0703 12.707 51.6406 13.1302 50.8594 13.1953C50.4948 13.1953 50.1758 13.0781 49.9023 12.8438C49.6419 12.5964 49.5117 12.2904 49.5117 11.9258V5.16797C49.5247 4.80339 49.6615 4.50391 49.9219 4.26953C50.1823 4.02214 50.4948 3.89844 50.8594 3.89844ZM49.2188 1.35938C49.2188 0.994792 49.375 0.682292 49.6875 0.421875C50 0.161458 50.3776 0.03125 50.8203 0.03125C51.263 0.03125 51.6406 0.161458 51.9531 0.421875C52.2656 0.682292 52.4219 0.994792 52.4219 1.35938C52.4219 1.73698 52.2656 2.05599 51.9531 2.31641C51.6406 2.57682 51.263 2.70703 50.8203 2.70703C50.3776 2.70703 50 2.57682 49.6875 2.31641C49.375 2.05599 49.2188 1.73698 49.2188 1.35938ZM60.7617 3.80078C61.4388 3.80078 62.1029 3.87891 62.7539 4.03516C63.418 4.19141 64.0495 4.42578 64.6484 4.73828C65.2474 5.03776 65.7747 5.44141 66.2305 5.94922C66.6992 6.45703 66.9531 7.0625 66.9922 7.76562V8.58594V11.9258C66.9141 12.707 66.4844 13.1302 65.7031 13.1953C65.3385 13.1953 65.0195 13.0781 64.7461 12.8438C64.4857 12.5964 64.3555 12.2904 64.3555 11.9258V11.0664V8.37109C64.3294 7.96745 64.1732 7.63542 63.8867 7.375C63.6133 7.10156 63.3008 6.88672 62.9492 6.73047C62.6107 6.57422 62.2526 6.45703 61.875 6.37891C61.5104 6.30078 61.1393 6.26172 60.7617 6.26172C60.3841 6.26172 60.0065 6.30078 59.6289 6.37891C59.2643 6.45703 58.9062 6.57422 58.5547 6.73047C58.2161 6.88672 57.9036 7.10156 57.6172 7.375C57.3438 7.63542 57.194 7.96745 57.168 8.37109V11.0664V11.9258C57.1029 12.707 56.6797 13.1302 55.8984 13.1953C55.5339 13.1953 55.2148 13.0781 54.9414 12.8438C54.681 12.5964 54.5508 12.2904 54.5508 11.9258V8.58594V7.76562C54.5898 7.0625 54.8372 6.45703 55.293 5.94922C55.7487 5.44141 56.276 5.03776 56.875 4.73828C57.474 4.42578 58.099 4.19141 58.75 4.03516C59.4141 3.87891 60.0846 3.80078 60.7617 3.80078ZM80.4297 7.21875C80.4297 6.89323 80.2604 6.72396 79.9219 6.71094H73.0859C72.8385 6.72396 72.6237 6.83464 72.4414 7.04297C72.2591 7.23828 72.1224 7.47266 72.0312 7.74609C71.9531 8.00651 71.9141 8.27344 71.9141 8.54688C71.9141 8.80729 71.9531 9.07422 72.0312 9.34766C72.1224 9.60807 72.2591 9.84245 72.4414 10.0508C72.6237 10.2461 72.8385 10.3438 73.0859 10.3438H78.0859C78.4505 10.3438 78.7565 10.474 79.0039 10.7344C79.2643 10.9818 79.3945 11.2878 79.3945 11.6523C79.3945 12.0169 79.2643 12.3229 79.0039 12.5703C78.7565 12.8307 78.4505 12.9609 78.0859 12.9609H73.1641C72.2526 12.9479 71.4974 12.694 70.8984 12.1992C70.3125 11.6914 69.8893 11.125 69.6289 10.5C69.3815 9.86198 69.2578 9.20443 69.2578 8.52734C69.2578 7.8763 69.388 7.23828 69.6484 6.61328C69.9089 5.97526 70.332 5.40885 70.918 4.91406C71.5039 4.40625 72.3698 4.13281 73.5156 4.09375H81.7188C82.0833 4.09375 82.3958 4.21745 82.6562 4.46484C82.9167 4.69922 83.0534 4.9987 83.0664 5.36328V11.5352C83.0664 12.5768 82.9232 13.5599 82.6367 14.4844C82.3763 15.3047 81.9466 15.9948 81.3477 16.5547C80.7617 17.1276 80.013 17.4401 79.1016 17.4922H72.3438C71.9922 17.4792 71.6927 17.349 71.4453 17.1016C71.2109 16.8672 71.0872 16.5742 71.0742 16.2227C71.0742 15.8581 71.1914 15.5456 71.4258 15.2852C71.6732 15.0247 71.9792 14.888 72.3438 14.875H78.4375C78.9323 14.849 79.3424 14.6602 79.668 14.3086C79.9935 13.957 80.2018 13.5469 80.293 13.0781C80.3841 12.6094 80.4297 12.0039 80.4297 11.2617V7.21875ZM20.3516 32.9609C19.2057 32.9219 18.3398 32.6549 17.7539 32.1602C17.168 31.6523 16.7448 31.0859 16.4844 30.4609C16.224 29.8229 16.0938 29.1784 16.0938 28.5273C16.0938 27.8503 16.2174 27.1992 16.4648 26.5742C16.7253 25.9362 17.1484 25.3698 17.7344 24.875C18.3333 24.3672 19.0885 24.1068 20 24.0938H27.4219C27.7865 24.0938 28.0924 24.224 28.3398 24.4844C28.6003 24.7318 28.7305 25.0378 28.7305 25.4023C28.7305 25.7669 28.6003 26.0794 28.3398 26.3398C28.0924 26.5872 27.7865 26.7109 27.4219 26.7109H19.9219C19.6745 26.7109 19.4596 26.8151 19.2773 27.0234C19.0951 27.2188 18.9583 27.4531 18.8672 27.7266C18.7891 27.987 18.75 28.2474 18.75 28.5078C18.75 28.7812 18.7891 29.0547 18.8672 29.3281C18.9583 29.5885 19.0951 29.8229 19.2773 30.0312C19.4596 30.2266 19.6745 30.3307 19.9219 30.3438H27.4219C27.7865 30.3438 28.0924 30.474 28.3398 30.7344C28.6003 30.9818 28.7305 31.2878 28.7305 31.6523C28.7305 32.0169 28.6003 32.3229 28.3398 32.5703C28.0924 32.8307 27.7865 32.9609 27.4219 32.9609H20.3516ZM32.1289 21.125C32.4805 21.138 32.7799 21.2682 33.0273 21.5156C33.2747 21.75 33.4049 22.043 33.418 22.3945V24.0938H39.4727C40.3841 24.1068 41.1328 24.3672 41.7188 24.875C42.3177 25.3698 42.7409 25.9297 42.9883 26.5547C43.2487 27.1927 43.3789 27.8503 43.3789 28.5273H43.3984V31.9258C43.3984 32.2904 43.2617 32.5964 42.9883 32.8438C42.7279 33.0781 42.4154 33.1953 42.0508 33.1953C41.2695 33.1302 40.8398 32.707 40.7617 31.9258V28.5078C40.7617 28.2604 40.7096 28 40.6055 27.7266C40.5143 27.4531 40.3776 27.2188 40.1953 27.0234C40.013 26.8151 39.7982 26.7109 39.5508 26.7109H33.418V31.9648C33.3398 32.7461 32.9102 33.1693 32.1289 33.2344C31.7643 33.2344 31.4453 33.1172 31.1719 32.8828C30.9115 32.6354 30.7812 32.3294 30.7812 31.9648V22.3945C30.7943 22.0299 30.931 21.7305 31.1914 21.4961C31.4518 21.2487 31.7643 21.125 32.1289 21.125ZM49.9023 32.9609C48.7565 32.9219 47.8906 32.6549 47.3047 32.1602C46.7188 31.6523 46.2956 31.0859 46.0352 30.4609C45.7747 29.8229 45.6445 29.1784 45.6445 28.5273C45.6445 27.8503 45.7682 27.1992 46.0156 26.5742C46.276 25.9362 46.6992 25.3698 47.2852 24.875C47.8841 24.3672 48.6393 24.1068 49.5508 24.0938H55.8789C56.7904 24.1068 57.5391 24.3672 58.125 24.875C58.724 25.3698 59.1471 25.9362 59.3945 26.5742C59.6549 27.1992 59.7852 27.8503 59.7852 28.5273C59.7852 29.1784 59.6549 29.8229 59.3945 30.4609C59.1341 31.0859 58.7109 31.6523 58.125 32.1602C57.5391 32.6549 56.6732 32.9219 55.5273 32.9609H49.9023ZM49.4727 26.7109C49.2253 26.7109 49.0104 26.8151 48.8281 27.0234C48.6458 27.2188 48.5091 27.4531 48.418 27.7266C48.3398 27.987 48.3008 28.2474 48.3008 28.5078C48.3008 28.7812 48.3398 29.0547 48.418 29.3281C48.5091 29.5885 48.6458 29.8229 48.8281 30.0312C49.0104 30.2266 49.2253 30.3307 49.4727 30.3438H55.957C56.2044 30.3307 56.4193 30.2266 56.6016 30.0312C56.7839 29.8229 56.9141 29.5885 56.9922 29.3281C57.0833 29.0547 57.1289 28.7812 57.1289 28.5078C57.1289 28.2474 57.0833 27.987 56.9922 27.7266C56.9141 27.4531 56.7839 27.2188 56.6016 27.0234C56.4193 26.8151 56.2044 26.7109 55.957 26.7109H49.4727ZM66.0742 32.9609C64.9284 32.9219 64.0625 32.6549 63.4766 32.1602C62.8906 31.6523 62.4674 31.0859 62.207 30.4609C61.9466 29.8229 61.8164 29.1784 61.8164 28.5273C61.8164 27.8503 61.9401 27.1992 62.1875 26.5742C62.4479 25.9362 62.8711 25.3698 63.457 24.875C64.056 24.3672 64.8112 24.1068 65.7227 24.0938H72.0508C72.9622 24.1068 73.7109 24.3672 74.2969 24.875C74.8958 25.3698 75.319 25.9362 75.5664 26.5742C75.8268 27.1992 75.957 27.8503 75.957 28.5273C75.957 29.1784 75.8268 29.8229 75.5664 30.4609C75.306 31.0859 74.8828 31.6523 74.2969 32.1602C73.7109 32.6549 72.8451 32.9219 71.6992 32.9609H66.0742ZM65.6445 26.7109C65.3971 26.7109 65.1823 26.8151 65 27.0234C64.8177 27.2188 64.681 27.4531 64.5898 27.7266C64.5117 27.987 64.4727 28.2474 64.4727 28.5078C64.4727 28.7812 64.5117 29.0547 64.5898 29.3281C64.681 29.5885 64.8177 29.8229 65 30.0312C65.1823 30.2266 65.3971 30.3307 65.6445 30.3438H72.1289C72.3763 30.3307 72.5911 30.2266 72.7734 30.0312C72.9557 29.8229 73.0859 29.5885 73.1641 29.3281C73.2552 29.0547 73.3008 28.7812 73.3008 28.5078C73.3008 28.2474 73.2552 27.987 73.1641 27.7266C73.0859 27.4531 72.9557 27.2188 72.7734 27.0234C72.5911 26.8151 72.3763 26.7109 72.1289 26.7109H65.6445ZM79.5508 21.125C79.9023 21.138 80.2018 21.2682 80.4492 21.5156C80.6966 21.75 80.8268 22.043 80.8398 22.3945V31.9648C80.7617 32.7461 80.332 33.1693 79.5508 33.2344C79.1862 33.2344 78.8672 33.1172 78.5938 32.8828C78.3333 32.6354 78.2031 32.3294 78.2031 31.9648V22.3945C78.2161 22.0299 78.3529 21.7305 78.6133 21.4961C78.8737 21.2487 79.1862 21.125 79.5508 21.125Z" fill="black"/>
</svg>
