<svg width="132" height="14" viewBox="0 0 132 14" fill="none" xmlns="http://www.w3.org/2000/svg">
<path d="M7.28027 1.32812C7.96387 1.36719 8.52539 1.63086 8.96484 2.11914C9.4043 2.59766 9.72168 3.14453 9.91699 3.75977C10.1123 4.375 10.21 5.00488 10.21 5.64941C10.21 6.29395 10.1123 6.92383 9.91699 7.53906C9.73145 8.1543 9.41406 8.70605 8.96484 9.19434C8.52539 9.67285 7.96387 9.93164 7.28027 9.9707H1.88965C1.62598 9.96094 1.40137 9.86816 1.21582 9.69238C1.04004 9.50684 0.947266 9.28223 0.9375 9.01855V5.38574C0.947266 5.1123 1.0498 4.8877 1.24512 4.71191C1.44043 4.52637 1.6748 4.43359 1.94824 4.43359C2.21191 4.44336 2.43652 4.54102 2.62207 4.72656C2.80762 4.90234 2.90527 5.12207 2.91504 5.38574V7.6123C2.91504 7.87598 3.05176 8.00781 3.3252 8.00781H6.78223C7.15332 7.98828 7.46094 7.84668 7.70508 7.58301C7.94922 7.31934 8.125 7.02148 8.23242 6.68945C8.34961 6.34766 8.4082 6.00098 8.4082 5.64941C8.4082 5.29785 8.34961 4.95605 8.23242 4.62402C8.125 4.28223 7.94922 3.97949 7.70508 3.71582C7.46094 3.45215 7.15332 3.31055 6.78223 3.29102H1.88965C1.30371 3.24219 0.986328 2.9248 0.9375 2.33887C0.9375 2.06543 1.02539 1.83105 1.20117 1.63574C1.38672 1.44043 1.61621 1.33789 1.88965 1.32812H7.28027ZM81.2549 2.30957C81.2549 2.58301 81.1572 2.8125 80.9619 2.99805C80.7764 3.19336 80.5469 3.29102 80.2734 3.29102H74.4141C74.2285 3.30078 74.0723 3.34473 73.9453 3.42285C73.8281 3.49121 73.7402 3.57422 73.6816 3.67188C73.623 3.75977 73.5938 3.85254 73.5938 3.9502C73.5938 4.04785 73.623 4.14551 73.6816 4.24316C73.7402 4.33105 73.8281 4.41406 73.9453 4.49219C74.0723 4.56055 74.2285 4.59961 74.4141 4.60938H78.5742C79.2578 4.62891 79.8193 4.79004 80.2588 5.09277C80.708 5.38574 81.0254 5.72754 81.2109 6.11816C81.4062 6.49902 81.5039 6.88965 81.5039 7.29004C81.5039 7.68066 81.4062 8.07129 81.2109 8.46191C81.0156 8.84277 80.6982 9.18457 80.2588 9.4873C79.8193 9.78027 79.2578 9.92676 78.5742 9.92676H78.4863C78.4277 9.93652 78.3691 9.94141 78.3105 9.94141H72.7734C72.5 9.94141 72.2656 9.84863 72.0703 9.66309C71.8848 9.46777 71.792 9.2334 71.792 8.95996C71.792 8.68652 71.8896 8.45703 72.085 8.27148C72.2705 8.07617 72.5 7.97852 72.7734 7.97852H78.6621C78.8477 7.98828 78.999 7.9541 79.1162 7.87598C79.2432 7.79785 79.3359 7.70996 79.3945 7.6123C79.4531 7.50488 79.4824 7.39746 79.4824 7.29004C79.4824 7.22168 79.4531 7.12891 79.3945 7.01172C79.3359 6.88477 79.2432 6.78223 79.1162 6.7041C78.999 6.62598 78.8477 6.58203 78.6621 6.57227H74.502C73.8184 6.55273 73.252 6.39648 72.8027 6.10352C72.3633 5.81055 72.0459 5.47852 71.8506 5.10742C71.665 4.72656 71.5723 4.34082 71.5723 3.9502C71.5723 3.56934 71.6699 3.19336 71.8652 2.82227C72.0605 2.44141 72.3779 2.10449 72.8174 1.81152C73.2568 1.51855 73.8184 1.3623 74.502 1.34277H74.5898C74.6484 1.33301 74.707 1.32812 74.7656 1.32812H80.2734C80.5469 1.32812 80.7764 1.42578 80.9619 1.62109C81.1572 1.80664 81.2549 2.03613 81.2549 2.30957Z" fill="#F8CE03"/>
<path d="M12.1143 5.16602C12.2998 4.69727 12.6123 4.27734 13.0518 3.90625C13.501 3.52539 14.0674 3.33008 14.751 3.32031H20.2588C20.5322 3.32031 20.7617 3.41797 20.9473 3.61328C21.1426 3.79883 21.2402 4.02832 21.2402 4.30176C21.2402 4.5752 21.1426 4.80957 20.9473 5.00488C20.7617 5.19043 20.5322 5.2832 20.2588 5.2832H14.6924C14.5068 5.2832 14.3457 5.36133 14.209 5.51758C14.0723 5.66406 13.9648 5.83984 13.8867 6.04492C13.8184 6.25 13.7842 6.44531 13.7842 6.63086V9.19434C13.7256 9.78027 13.4033 10.0977 12.8174 10.1465C12.5439 10.1465 12.3047 10.0586 12.0996 9.88281C11.9043 9.69727 11.8066 9.46777 11.8066 9.19434V6.64551H11.8213C11.8213 6.1377 11.9189 5.64453 12.1143 5.16602ZM23.7012 3.17383C23.9648 3.18359 24.1895 3.28125 24.375 3.4668C24.5605 3.64258 24.6582 3.8623 24.668 4.12598V9.19434C24.6094 9.78027 24.2871 10.0977 23.7012 10.1465C23.4277 10.1465 23.1885 10.0586 22.9834 9.88281C22.7881 9.69727 22.6904 9.46777 22.6904 9.19434V4.12598C22.7002 3.85254 22.8027 3.62793 22.998 3.45215C23.1934 3.2666 23.4277 3.17383 23.7012 3.17383ZM22.4707 1.26953C22.4707 0.996094 22.5879 0.761719 22.8223 0.566406C23.0566 0.371094 23.3398 0.273438 23.6719 0.273438C24.0039 0.273438 24.2871 0.371094 24.5215 0.566406C24.7559 0.761719 24.873 0.996094 24.873 1.26953C24.873 1.55273 24.7559 1.79199 24.5215 1.9873C24.2871 2.18262 24.0039 2.28027 23.6719 2.28027C23.3398 2.28027 23.0566 2.18262 22.8223 1.9873C22.5879 1.79199 22.4707 1.55273 22.4707 1.26953ZM28.7695 9.19434C28.2715 8.52051 27.7734 7.63672 27.2754 6.54297L26.3232 4.49219C26.2744 4.38477 26.2451 4.26758 26.2354 4.14062C26.2158 3.86719 26.2988 3.63281 26.4844 3.4375C26.6699 3.24219 26.9141 3.14453 27.2168 3.14453C27.5488 3.14453 27.793 3.21289 27.9492 3.34961C28.1152 3.47656 28.2471 3.64258 28.3447 3.84766L29.0332 5.54688C29.209 5.94727 29.3799 6.32812 29.5459 6.68945C29.7217 7.04102 29.917 7.36328 30.1318 7.65625C30.3564 7.94922 30.6055 8.10547 30.8789 8.125C31.1426 8.10547 31.3916 7.94922 31.626 7.65625C31.8311 7.36328 32.0166 7.04102 32.1826 6.68945C32.3584 6.32812 32.5342 5.94727 32.71 5.54688L33.3984 3.84766C33.4961 3.64258 33.623 3.47656 33.7793 3.34961C33.9453 3.21289 34.1943 3.14453 34.5264 3.14453C34.8291 3.14453 35.0732 3.24219 35.2588 3.4375C35.4443 3.63281 35.5273 3.86719 35.5078 4.14062C35.498 4.26758 35.4688 4.38477 35.4199 4.49219L34.4678 6.54297C33.9697 7.63672 33.4717 8.52051 32.9736 9.19434C32.4951 9.8584 31.7969 10.1953 30.8789 10.2051C29.9512 10.1953 29.248 9.8584 28.7695 9.19434ZM38.1445 3.17383C38.4082 3.18359 38.6328 3.28125 38.8184 3.4668C39.0039 3.64258 39.1016 3.8623 39.1113 4.12598V9.19434C39.0527 9.78027 38.7305 10.0977 38.1445 10.1465C37.8711 10.1465 37.6318 10.0586 37.4268 9.88281C37.2314 9.69727 37.1338 9.46777 37.1338 9.19434V4.12598C37.1436 3.85254 37.2461 3.62793 37.4414 3.45215C37.6367 3.2666 37.8711 3.17383 38.1445 3.17383ZM36.9141 1.26953C36.9141 0.996094 37.0312 0.761719 37.2656 0.566406C37.5 0.371094 37.7832 0.273438 38.1152 0.273438C38.4473 0.273438 38.7305 0.371094 38.9648 0.566406C39.1992 0.761719 39.3164 0.996094 39.3164 1.26953C39.3164 1.55273 39.1992 1.79199 38.9648 1.9873C38.7305 2.18262 38.4473 2.28027 38.1152 2.28027C37.7832 2.28027 37.5 2.18262 37.2656 1.9873C37.0312 1.79199 36.9141 1.55273 36.9141 1.26953ZM45.5713 3.10059C46.0791 3.10059 46.5771 3.15918 47.0654 3.27637C47.5635 3.39355 48.0371 3.56934 48.4863 3.80371C48.9355 4.02832 49.3311 4.33105 49.6729 4.71191C50.0244 5.09277 50.2148 5.54688 50.2441 6.07422V6.68945V9.19434C50.1855 9.78027 49.8633 10.0977 49.2773 10.1465C49.0039 10.1465 48.7646 10.0586 48.5596 9.88281C48.3643 9.69727 48.2666 9.46777 48.2666 9.19434V8.5498V6.52832C48.2471 6.22559 48.1299 5.97656 47.915 5.78125C47.71 5.57617 47.4756 5.41504 47.2119 5.29785C46.958 5.18066 46.6895 5.09277 46.4062 5.03418C46.1328 4.97559 45.8545 4.94629 45.5713 4.94629C45.2881 4.94629 45.0049 4.97559 44.7217 5.03418C44.4482 5.09277 44.1797 5.18066 43.916 5.29785C43.6621 5.41504 43.4277 5.57617 43.2129 5.78125C43.0078 5.97656 42.8955 6.22559 42.876 6.52832V8.5498V9.19434C42.8271 9.78027 42.5098 10.0977 41.9238 10.1465C41.6504 10.1465 41.4111 10.0586 41.2061 9.88281C41.0107 9.69727 40.9131 9.46777 40.9131 9.19434V6.68945V6.07422C40.9424 5.54688 41.1279 5.09277 41.4697 4.71191C41.8115 4.33105 42.207 4.02832 42.6562 3.80371C43.1055 3.56934 43.5742 3.39355 44.0625 3.27637C44.5605 3.15918 45.0635 3.10059 45.5713 3.10059ZM60.3223 5.66406C60.3223 5.41992 60.1953 5.29297 59.9414 5.2832H54.8145C54.6289 5.29297 54.4678 5.37598 54.3311 5.53223C54.1943 5.67871 54.0918 5.85449 54.0234 6.05957C53.9648 6.25488 53.9355 6.45508 53.9355 6.66016C53.9355 6.85547 53.9648 7.05566 54.0234 7.26074C54.0918 7.45605 54.1943 7.63184 54.3311 7.78809C54.4678 7.93457 54.6289 8.00781 54.8145 8.00781H58.5645C58.8379 8.00781 59.0674 8.10547 59.2529 8.30078C59.4482 8.48633 59.5459 8.71582 59.5459 8.98926C59.5459 9.2627 59.4482 9.49219 59.2529 9.67773C59.0674 9.87305 58.8379 9.9707 58.5645 9.9707H54.873C54.1895 9.96094 53.623 9.77051 53.1738 9.39941C52.7344 9.01855 52.417 8.59375 52.2217 8.125C52.0361 7.64648 51.9434 7.15332 51.9434 6.64551C51.9434 6.15723 52.041 5.67871 52.2363 5.20996C52.4316 4.73145 52.749 4.30664 53.1885 3.93555C53.6279 3.55469 54.2773 3.34961 55.1367 3.32031H61.2891C61.5625 3.32031 61.7969 3.41309 61.9922 3.59863C62.1875 3.77441 62.29 3.99902 62.2998 4.27246V8.90137C62.2998 9.68262 62.1924 10.4199 61.9775 11.1133C61.7822 11.7285 61.46 12.2461 61.0107 12.666C60.5713 13.0957 60.0098 13.3301 59.3262 13.3691H54.2578C53.9941 13.3594 53.7695 13.2617 53.584 13.0762C53.4082 12.9004 53.3154 12.6807 53.3057 12.417C53.3057 12.1436 53.3936 11.9092 53.5693 11.7139C53.7549 11.5186 53.9844 11.416 54.2578 11.4062H58.8281C59.1992 11.3867 59.5068 11.2451 59.751 10.9814C59.9951 10.7178 60.1514 10.4102 60.2197 10.0586C60.2881 9.70703 60.3223 9.25293 60.3223 8.69629V5.66406ZM86.1182 9.9707C85.2588 9.94141 84.6094 9.74121 84.1699 9.37012C83.7305 8.98926 83.4131 8.56445 83.2178 8.0957C83.0225 7.61719 82.9248 7.13379 82.9248 6.64551C82.9248 6.1377 83.0176 5.64941 83.2031 5.18066C83.3984 4.70215 83.7158 4.27734 84.1553 3.90625C84.6045 3.52539 85.1709 3.33008 85.8545 3.32031H91.4209C91.6943 3.32031 91.9238 3.41797 92.1094 3.61328C92.3047 3.79883 92.4023 4.02832 92.4023 4.30176C92.4023 4.5752 92.3047 4.80957 92.1094 5.00488C91.9238 5.19043 91.6943 5.2832 91.4209 5.2832H85.7959C85.6104 5.2832 85.4492 5.36133 85.3125 5.51758C85.1758 5.66406 85.0732 5.83984 85.0049 6.04492C84.9463 6.24023 84.917 6.43555 84.917 6.63086C84.917 6.83594 84.9463 7.04102 85.0049 7.24609C85.0732 7.44141 85.1758 7.61719 85.3125 7.77344C85.4492 7.91992 85.6104 7.99805 85.7959 8.00781H91.4209C91.6943 8.00781 91.9238 8.10547 92.1094 8.30078C92.3047 8.48633 92.4023 8.71582 92.4023 8.98926C92.4023 9.2627 92.3047 9.49219 92.1094 9.67773C91.9238 9.87305 91.6943 9.9707 91.4209 9.9707H86.1182ZM94.9512 1.09375C95.2148 1.10352 95.4395 1.20117 95.625 1.38672C95.8105 1.5625 95.9082 1.78223 95.918 2.0459V3.32031H100.459C101.143 3.33008 101.704 3.52539 102.144 3.90625C102.593 4.27734 102.91 4.69727 103.096 5.16602C103.291 5.64453 103.389 6.1377 103.389 6.64551H103.403V9.19434C103.403 9.46777 103.301 9.69727 103.096 9.88281C102.9 10.0586 102.666 10.1465 102.393 10.1465C101.807 10.0977 101.484 9.78027 101.426 9.19434V6.63086C101.426 6.44531 101.387 6.25 101.309 6.04492C101.24 5.83984 101.138 5.66406 101.001 5.51758C100.864 5.36133 100.703 5.2832 100.518 5.2832H95.918V9.22363C95.8594 9.80957 95.5371 10.127 94.9512 10.1758C94.6777 10.1758 94.4385 10.0879 94.2334 9.91211C94.0381 9.72656 93.9404 9.49707 93.9404 9.22363V2.0459C93.9502 1.77246 94.0527 1.54785 94.248 1.37207C94.4434 1.18652 94.6777 1.09375 94.9512 1.09375ZM108.281 9.9707C107.422 9.94141 106.772 9.74121 106.333 9.37012C105.894 8.98926 105.576 8.56445 105.381 8.0957C105.186 7.61719 105.088 7.13379 105.088 6.64551C105.088 6.1377 105.181 5.64941 105.366 5.18066C105.562 4.70215 105.879 4.27734 106.318 3.90625C106.768 3.52539 107.334 3.33008 108.018 3.32031H112.764C113.447 3.33008 114.009 3.52539 114.448 3.90625C114.897 4.27734 115.215 4.70215 115.4 5.18066C115.596 5.64941 115.693 6.1377 115.693 6.64551C115.693 7.13379 115.596 7.61719 115.4 8.0957C115.205 8.56445 114.888 8.98926 114.448 9.37012C114.009 9.74121 113.359 9.94141 112.5 9.9707H108.281ZM107.959 5.2832C107.773 5.2832 107.612 5.36133 107.476 5.51758C107.339 5.66406 107.236 5.83984 107.168 6.04492C107.109 6.24023 107.08 6.43555 107.08 6.63086C107.08 6.83594 107.109 7.04102 107.168 7.24609C107.236 7.44141 107.339 7.61719 107.476 7.77344C107.612 7.91992 107.773 7.99805 107.959 8.00781H112.822C113.008 7.99805 113.169 7.91992 113.306 7.77344C113.442 7.61719 113.54 7.44141 113.599 7.24609C113.667 7.04102 113.701 6.83594 113.701 6.63086C113.701 6.43555 113.667 6.24023 113.599 6.04492C113.54 5.83984 113.442 5.66406 113.306 5.51758C113.169 5.36133 113.008 5.2832 112.822 5.2832H107.959ZM120.41 9.9707C119.551 9.94141 118.901 9.74121 118.462 9.37012C118.022 8.98926 117.705 8.56445 117.51 8.0957C117.314 7.61719 117.217 7.13379 117.217 6.64551C117.217 6.1377 117.31 5.64941 117.495 5.18066C117.69 4.70215 118.008 4.27734 118.447 3.90625C118.896 3.52539 119.463 3.33008 120.146 3.32031H124.893C125.576 3.33008 126.138 3.52539 126.577 3.90625C127.026 4.27734 127.344 4.70215 127.529 5.18066C127.725 5.64941 127.822 6.1377 127.822 6.64551C127.822 7.13379 127.725 7.61719 127.529 8.0957C127.334 8.56445 127.017 8.98926 126.577 9.37012C126.138 9.74121 125.488 9.94141 124.629 9.9707H120.41ZM120.088 5.2832C119.902 5.2832 119.741 5.36133 119.604 5.51758C119.468 5.66406 119.365 5.83984 119.297 6.04492C119.238 6.24023 119.209 6.43555 119.209 6.63086C119.209 6.83594 119.238 7.04102 119.297 7.24609C119.365 7.44141 119.468 7.61719 119.604 7.77344C119.741 7.91992 119.902 7.99805 120.088 8.00781H124.951C125.137 7.99805 125.298 7.91992 125.435 7.77344C125.571 7.61719 125.669 7.44141 125.728 7.24609C125.796 7.04102 125.83 6.83594 125.83 6.63086C125.83 6.43555 125.796 6.24023 125.728 6.04492C125.669 5.83984 125.571 5.66406 125.435 5.51758C125.298 5.36133 125.137 5.2832 124.951 5.2832H120.088ZM130.518 1.09375C130.781 1.10352 131.006 1.20117 131.191 1.38672C131.377 1.5625 131.475 1.78223 131.484 2.0459V9.22363C131.426 9.80957 131.104 10.127 130.518 10.1758C130.244 10.1758 130.005 10.0879 129.8 9.91211C129.604 9.72656 129.507 9.49707 129.507 9.22363V2.0459C129.517 1.77246 129.619 1.54785 129.814 1.37207C130.01 1.18652 130.244 1.09375 130.518 1.09375Z" fill="black"/>
</svg>
