<svg width="103" height="43" viewBox="0 0 103 43" fill="none" xmlns="http://www.w3.org/2000/svg">
<path d="M11.1338 2.54688C12.2731 2.61198 13.209 3.05143 13.9414 3.86523C14.6738 4.66276 15.2028 5.57422 15.5283 6.59961C15.8538 7.625 16.0166 8.6748 16.0166 9.74902C16.0166 10.8232 15.8538 11.873 15.5283 12.8984C15.2191 13.9238 14.6901 14.8434 13.9414 15.6572C13.209 16.4548 12.2731 16.8861 11.1338 16.9512H2.14941C1.70996 16.9349 1.33561 16.7803 1.02637 16.4873C0.733398 16.1781 0.578776 15.8037 0.5625 15.3643V9.30957C0.578776 8.85384 0.749674 8.47949 1.0752 8.18652C1.40072 7.87728 1.79134 7.72266 2.24707 7.72266C2.68652 7.73893 3.06087 7.90169 3.37012 8.21094C3.67936 8.50391 3.84212 8.87012 3.8584 9.30957V13.0205C3.8584 13.46 4.08626 13.6797 4.54199 13.6797H10.3037C10.9222 13.6471 11.4349 13.4111 11.8418 12.9717C12.2487 12.5322 12.5417 12.0358 12.7207 11.4824C12.916 10.9128 13.0137 10.335 13.0137 9.74902C13.0137 9.16309 12.916 8.59342 12.7207 8.04004C12.5417 7.47038 12.2487 6.96582 11.8418 6.52637C11.4349 6.08691 10.9222 5.85091 10.3037 5.81836H2.14941C1.17285 5.73698 0.64388 5.20801 0.5625 4.23145C0.5625 3.77572 0.708984 3.38509 1.00195 3.05957C1.3112 2.73405 1.69368 2.56315 2.14941 2.54688H11.1338ZM16.334 29.1826C16.334 29.6383 16.1712 30.0208 15.8457 30.3301C15.5365 30.6556 15.154 30.8184 14.6982 30.8184H4.93262C4.62337 30.8346 4.36296 30.9079 4.15137 31.0381C3.95605 31.152 3.80957 31.2904 3.71191 31.4531C3.61426 31.5996 3.56543 31.7542 3.56543 31.917C3.56543 32.0798 3.61426 32.2425 3.71191 32.4053C3.80957 32.5518 3.95605 32.6901 4.15137 32.8203C4.36296 32.9342 4.62337 32.9993 4.93262 33.0156H11.8662C13.0055 33.0482 13.9414 33.3167 14.6738 33.8213C15.4225 34.3096 15.9515 34.8792 16.2607 35.5303C16.5863 36.165 16.749 36.8161 16.749 37.4834C16.749 38.1344 16.5863 38.7855 16.2607 39.4365C15.9352 40.0713 15.4062 40.641 14.6738 41.1455C13.9414 41.6338 13.0055 41.8779 11.8662 41.8779H11.7197C11.6221 41.8942 11.5244 41.9023 11.4268 41.9023H2.19824C1.74251 41.9023 1.35189 41.7477 1.02637 41.4385C0.717122 41.113 0.5625 40.7223 0.5625 40.2666C0.5625 39.8109 0.72526 39.4284 1.05078 39.1191C1.36003 38.7936 1.74251 38.6309 2.19824 38.6309H12.0127C12.3219 38.6471 12.5742 38.5902 12.7695 38.46C12.9811 38.3298 13.1357 38.1833 13.2334 38.0205C13.3311 37.8415 13.3799 37.6624 13.3799 37.4834C13.3799 37.3695 13.3311 37.2148 13.2334 37.0195C13.1357 36.8079 12.9811 36.637 12.7695 36.5068C12.5742 36.3766 12.3219 36.3034 12.0127 36.2871H5.0791C3.93978 36.2546 2.99577 35.9941 2.24707 35.5059C1.51465 35.0176 0.985677 34.4642 0.660156 33.8457C0.350911 33.2109 0.196289 32.568 0.196289 31.917C0.196289 31.2822 0.359049 30.6556 0.68457 30.0371C1.01009 29.4023 1.53906 28.8408 2.27148 28.3525C3.00391 27.8643 3.93978 27.6038 5.0791 27.5713H5.22559C5.32324 27.555 5.4209 27.5469 5.51855 27.5469H14.6982C15.154 27.5469 15.5365 27.7096 15.8457 28.0352C16.1712 28.3444 16.334 28.7269 16.334 29.1826Z" fill="#F8CE03"/>
<path d="M19.1904 8.94336C19.4997 8.16211 20.0205 7.46224 20.7529 6.84375C21.5016 6.20898 22.4456 5.88346 23.585 5.86719H32.7646C33.2204 5.86719 33.6029 6.02995 33.9121 6.35547C34.2376 6.66471 34.4004 7.0472 34.4004 7.50293C34.4004 7.95866 34.2376 8.34928 33.9121 8.6748C33.6029 8.98405 33.2204 9.13867 32.7646 9.13867H23.4873C23.1781 9.13867 22.9095 9.26888 22.6816 9.5293C22.4538 9.77344 22.2747 10.0664 22.1445 10.4082C22.0306 10.75 21.9736 11.0755 21.9736 11.3848V15.6572C21.876 16.6338 21.3389 17.1628 20.3623 17.2441C19.9066 17.2441 19.5078 17.0977 19.166 16.8047C18.8405 16.4954 18.6777 16.113 18.6777 15.6572V11.4092H18.7021C18.7021 10.5628 18.8649 9.74089 19.1904 8.94336ZM38.502 5.62305C38.9414 5.63932 39.3158 5.80208 39.625 6.11133C39.9342 6.4043 40.097 6.77051 40.1133 7.20996V15.6572C40.0156 16.6338 39.4785 17.1628 38.502 17.2441C38.0462 17.2441 37.6475 17.0977 37.3057 16.8047C36.9801 16.4954 36.8174 16.113 36.8174 15.6572V7.20996C36.8337 6.75423 37.0046 6.37988 37.3301 6.08691C37.6556 5.77767 38.0462 5.62305 38.502 5.62305ZM36.4512 2.44922C36.4512 1.99349 36.6465 1.60286 37.0371 1.27734C37.4277 0.951823 37.8997 0.789062 38.4531 0.789062C39.0065 0.789062 39.4785 0.951823 39.8691 1.27734C40.2598 1.60286 40.4551 1.99349 40.4551 2.44922C40.4551 2.92122 40.2598 3.31999 39.8691 3.64551C39.4785 3.97103 39.0065 4.13379 38.4531 4.13379C37.8997 4.13379 37.4277 3.97103 37.0371 3.64551C36.6465 3.31999 36.4512 2.92122 36.4512 2.44922ZM46.9492 15.6572C46.1191 14.5342 45.2891 13.0612 44.459 11.2383L42.8721 7.82031C42.7907 7.64128 42.7419 7.44596 42.7256 7.23438C42.693 6.77865 42.8314 6.38802 43.1406 6.0625C43.4499 5.73698 43.8568 5.57422 44.3613 5.57422C44.9147 5.57422 45.3216 5.68815 45.582 5.91602C45.8587 6.1276 46.0785 6.4043 46.2412 6.74609L47.3887 9.57812C47.6816 10.2454 47.9665 10.8802 48.2432 11.4824C48.5361 12.0684 48.8617 12.6055 49.2197 13.0938C49.5941 13.582 50.0091 13.8424 50.4648 13.875C50.9043 13.8424 51.3193 13.582 51.71 13.0938C52.0518 12.6055 52.361 12.0684 52.6377 11.4824C52.9307 10.8802 53.2236 10.2454 53.5166 9.57812L54.6641 6.74609C54.8268 6.4043 55.0384 6.1276 55.2988 5.91602C55.5755 5.68815 55.9906 5.57422 56.5439 5.57422C57.0485 5.57422 57.4554 5.73698 57.7646 6.0625C58.0739 6.38802 58.2122 6.77865 58.1797 7.23438C58.1634 7.44596 58.1146 7.64128 58.0332 7.82031L56.4463 11.2383C55.6162 13.0612 54.7861 14.5342 53.9561 15.6572C53.1585 16.764 51.9948 17.3255 50.4648 17.3418C48.9186 17.3255 47.7467 16.764 46.9492 15.6572ZM62.5742 5.62305C63.0137 5.63932 63.388 5.80208 63.6973 6.11133C64.0065 6.4043 64.1693 6.77051 64.1855 7.20996V15.6572C64.0879 16.6338 63.5508 17.1628 62.5742 17.2441C62.1185 17.2441 61.7197 17.0977 61.3779 16.8047C61.0524 16.4954 60.8896 16.113 60.8896 15.6572V7.20996C60.9059 6.75423 61.0768 6.37988 61.4023 6.08691C61.7279 5.77767 62.1185 5.62305 62.5742 5.62305ZM60.5234 2.44922C60.5234 1.99349 60.7188 1.60286 61.1094 1.27734C61.5 0.951823 61.972 0.789062 62.5254 0.789062C63.0788 0.789062 63.5508 0.951823 63.9414 1.27734C64.332 1.60286 64.5273 1.99349 64.5273 2.44922C64.5273 2.92122 64.332 3.31999 63.9414 3.64551C63.5508 3.97103 63.0788 4.13379 62.5254 4.13379C61.972 4.13379 61.5 3.97103 61.1094 3.64551C60.7188 3.31999 60.5234 2.92122 60.5234 2.44922ZM74.9521 5.50098C75.7985 5.50098 76.6286 5.59863 77.4424 5.79395C78.2725 5.98926 79.0618 6.28223 79.8105 6.67285C80.5592 7.0472 81.2184 7.55176 81.7881 8.18652C82.374 8.82129 82.6914 9.57812 82.7402 10.457V11.4824V15.6572C82.6426 16.6338 82.1055 17.1628 81.1289 17.2441C80.6732 17.2441 80.2744 17.0977 79.9326 16.8047C79.6071 16.4954 79.4443 16.113 79.4443 15.6572V14.583V11.2139C79.4118 10.7093 79.2165 10.2943 78.8584 9.96875C78.5166 9.62695 78.126 9.3584 77.6865 9.16309C77.2633 8.96777 76.8158 8.82129 76.3438 8.72363C75.888 8.62598 75.4242 8.57715 74.9521 8.57715C74.4801 8.57715 74.0081 8.62598 73.5361 8.72363C73.0804 8.82129 72.6328 8.96777 72.1934 9.16309C71.7702 9.3584 71.3796 9.62695 71.0215 9.96875C70.6797 10.2943 70.4925 10.7093 70.46 11.2139V14.583V15.6572C70.3786 16.6338 69.8496 17.1628 68.873 17.2441C68.4173 17.2441 68.0186 17.0977 67.6768 16.8047C67.3512 16.4954 67.1885 16.113 67.1885 15.6572V11.4824V10.457C67.2373 9.57812 67.5465 8.82129 68.1162 8.18652C68.6859 7.55176 69.3451 7.0472 70.0938 6.67285C70.8424 6.28223 71.6237 5.98926 72.4375 5.79395C73.2676 5.59863 74.1058 5.50098 74.9521 5.50098ZM99.5371 9.77344C99.5371 9.36654 99.3255 9.15495 98.9023 9.13867H90.3574C90.0482 9.15495 89.7796 9.29329 89.5518 9.55371C89.3239 9.79785 89.153 10.0908 89.0391 10.4326C88.9414 10.7581 88.8926 11.0918 88.8926 11.4336C88.8926 11.7591 88.9414 12.0928 89.0391 12.4346C89.153 12.7601 89.3239 13.0531 89.5518 13.3135C89.7796 13.5576 90.0482 13.6797 90.3574 13.6797H96.6074C97.0632 13.6797 97.4456 13.8424 97.7549 14.168C98.0804 14.4772 98.2432 14.8597 98.2432 15.3154C98.2432 15.7712 98.0804 16.1536 97.7549 16.4629C97.4456 16.7884 97.0632 16.9512 96.6074 16.9512H90.4551C89.3158 16.9349 88.3717 16.6175 87.623 15.999C86.8906 15.3643 86.3617 14.6562 86.0361 13.875C85.7269 13.0775 85.5723 12.2555 85.5723 11.4092C85.5723 10.5954 85.735 9.79785 86.0605 9.0166C86.3861 8.21908 86.915 7.51107 87.6475 6.89258C88.3799 6.25781 89.4622 5.91602 90.8945 5.86719H101.148C101.604 5.86719 101.995 6.02181 102.32 6.33105C102.646 6.62402 102.817 6.99837 102.833 7.4541V15.1689C102.833 16.471 102.654 17.6999 102.296 18.8555C101.97 19.8809 101.433 20.7435 100.685 21.4434C99.9521 22.1595 99.0163 22.5501 97.877 22.6152H89.4297C88.9902 22.599 88.6159 22.4362 88.3066 22.127C88.0137 21.834 87.859 21.4678 87.8428 21.0283C87.8428 20.5726 87.9893 20.182 88.2822 19.8564C88.5915 19.5309 88.974 19.36 89.4297 19.3438H97.0469C97.6654 19.3112 98.1781 19.0752 98.585 18.6357C98.9919 18.1963 99.2523 17.6836 99.3662 17.0977C99.4801 16.5117 99.5371 15.7549 99.5371 14.8271V9.77344ZM24.4395 41.9512C23.0072 41.9023 21.9248 41.5687 21.1924 40.9502C20.46 40.3154 19.931 39.6074 19.6055 38.8262C19.2799 38.0286 19.1172 37.223 19.1172 36.4092C19.1172 35.5628 19.2718 34.749 19.5811 33.9678C19.9066 33.1702 20.4355 32.4622 21.168 31.8438C21.9167 31.209 22.8607 30.8835 24 30.8672H33.2773C33.7331 30.8672 34.1156 31.0299 34.4248 31.3555C34.7503 31.6647 34.9131 32.0472 34.9131 32.5029C34.9131 32.9587 34.7503 33.3493 34.4248 33.6748C34.1156 33.984 33.7331 34.1387 33.2773 34.1387H23.9023C23.5931 34.1387 23.3245 34.2689 23.0967 34.5293C22.8688 34.7734 22.6979 35.0664 22.584 35.4082C22.4863 35.7337 22.4375 36.0592 22.4375 36.3848C22.4375 36.7266 22.4863 37.0684 22.584 37.4102C22.6979 37.7357 22.8688 38.0286 23.0967 38.2891C23.3245 38.5332 23.5931 38.6634 23.9023 38.6797H33.2773C33.7331 38.6797 34.1156 38.8424 34.4248 39.168C34.7503 39.4772 34.9131 39.8597 34.9131 40.3154C34.9131 40.7712 34.7503 41.1536 34.4248 41.4629C34.1156 41.7884 33.7331 41.9512 33.2773 41.9512H24.4395ZM39.1611 27.1562C39.6006 27.1725 39.9749 27.3353 40.2842 27.6445C40.5934 27.9375 40.7562 28.3037 40.7725 28.7432V30.8672H48.3408C49.4801 30.8835 50.416 31.209 51.1484 31.8438C51.8971 32.4622 52.4261 33.1621 52.7354 33.9434C53.0609 34.7409 53.2236 35.5628 53.2236 36.4092H53.248V40.6572C53.248 41.113 53.0771 41.4954 52.7354 41.8047C52.4098 42.0977 52.0192 42.2441 51.5635 42.2441C50.5869 42.1628 50.0498 41.6338 49.9521 40.6572V36.3848C49.9521 36.0755 49.887 35.75 49.7568 35.4082C49.6429 35.0664 49.472 34.7734 49.2441 34.5293C49.0163 34.2689 48.7477 34.1387 48.4385 34.1387H40.7725V40.7061C40.6748 41.6826 40.1377 42.2116 39.1611 42.293C38.7054 42.293 38.3066 42.1465 37.9648 41.8535C37.6393 41.5443 37.4766 41.1618 37.4766 40.7061V28.7432C37.4928 28.2874 37.6637 27.9131 37.9893 27.6201C38.3148 27.3109 38.7054 27.1562 39.1611 27.1562ZM61.3779 41.9512C59.9456 41.9023 58.8633 41.5687 58.1309 40.9502C57.3984 40.3154 56.8695 39.6074 56.5439 38.8262C56.2184 38.0286 56.0557 37.223 56.0557 36.4092C56.0557 35.5628 56.2103 34.749 56.5195 33.9678C56.8451 33.1702 57.374 32.4622 58.1064 31.8438C58.8551 31.209 59.7992 30.8835 60.9385 30.8672H68.8486C69.988 30.8835 70.9238 31.209 71.6562 31.8438C72.4049 32.4622 72.9339 33.1702 73.2432 33.9678C73.5687 34.749 73.7314 35.5628 73.7314 36.4092C73.7314 37.223 73.5687 38.0286 73.2432 38.8262C72.9176 39.6074 72.3887 40.3154 71.6562 40.9502C70.9238 41.5687 69.8415 41.9023 68.4092 41.9512H61.3779ZM60.8408 34.1387C60.5316 34.1387 60.263 34.2689 60.0352 34.5293C59.8073 34.7734 59.6364 35.0664 59.5225 35.4082C59.4248 35.7337 59.376 36.0592 59.376 36.3848C59.376 36.7266 59.4248 37.0684 59.5225 37.4102C59.6364 37.7357 59.8073 38.0286 60.0352 38.2891C60.263 38.5332 60.5316 38.6634 60.8408 38.6797H68.9463C69.2555 38.6634 69.5241 38.5332 69.752 38.2891C69.9798 38.0286 70.1426 37.7357 70.2402 37.4102C70.3542 37.0684 70.4111 36.7266 70.4111 36.3848C70.4111 36.0592 70.3542 35.7337 70.2402 35.4082C70.1426 35.0664 69.9798 34.7734 69.752 34.5293C69.5241 34.2689 69.2555 34.1387 68.9463 34.1387H60.8408ZM81.5928 41.9512C80.1605 41.9023 79.0781 41.5687 78.3457 40.9502C77.6133 40.3154 77.0843 39.6074 76.7588 38.8262C76.4333 38.0286 76.2705 37.223 76.2705 36.4092C76.2705 35.5628 76.4251 34.749 76.7344 33.9678C77.0599 33.1702 77.5889 32.4622 78.3213 31.8438C79.07 31.209 80.014 30.8835 81.1533 30.8672H89.0635C90.2028 30.8835 91.1387 31.209 91.8711 31.8438C92.6198 32.4622 93.1488 33.1702 93.458 33.9678C93.7835 34.749 93.9463 35.5628 93.9463 36.4092C93.9463 37.223 93.7835 38.0286 93.458 38.8262C93.1325 39.6074 92.6035 40.3154 91.8711 40.9502C91.1387 41.5687 90.0563 41.9023 88.624 41.9512H81.5928ZM81.0557 34.1387C80.7464 34.1387 80.4779 34.2689 80.25 34.5293C80.0221 34.7734 79.8512 35.0664 79.7373 35.4082C79.6396 35.7337 79.5908 36.0592 79.5908 36.3848C79.5908 36.7266 79.6396 37.0684 79.7373 37.4102C79.8512 37.7357 80.0221 38.0286 80.25 38.2891C80.4779 38.5332 80.7464 38.6634 81.0557 38.6797H89.1611C89.4704 38.6634 89.7389 38.5332 89.9668 38.2891C90.1947 38.0286 90.3574 37.7357 90.4551 37.4102C90.569 37.0684 90.626 36.7266 90.626 36.3848C90.626 36.0592 90.569 35.7337 90.4551 35.4082C90.3574 35.0664 90.1947 34.7734 89.9668 34.5293C89.7389 34.2689 89.4704 34.1387 89.1611 34.1387H81.0557ZM98.4385 27.1562C98.8779 27.1725 99.2523 27.3353 99.5615 27.6445C99.8708 27.9375 100.034 28.3037 100.05 28.7432V40.7061C99.9521 41.6826 99.415 42.2116 98.4385 42.293C97.9827 42.293 97.584 42.1465 97.2422 41.8535C96.9167 41.5443 96.7539 41.1618 96.7539 40.7061V28.7432C96.7702 28.2874 96.9411 27.9131 97.2666 27.6201C97.5921 27.3109 97.9827 27.1562 98.4385 27.1562Z" fill="black"/>
</svg>
